<?xml version="1.0" encoding="UTF-8"?>
<svg version="1.1" xmlns="http://www.w3.org/2000/svg" width="1000" height="979">
<path d="M0 0 C1.31418987 -0.00611336 2.62837973 -0.01222672 3.98239353 -0.01852533 C7.62639761 -0.03490307 11.26998264 -0.02646178 14.91398626 -0.0139137 C18.87981815 -0.00466026 22.84558037 -0.01859643 26.81139857 -0.02955288 C33.76080017 -0.04553722 40.71008068 -0.04663188 47.65949345 -0.03795528 C57.99350844 -0.02508751 68.32741388 -0.03504325 78.6614223 -0.04945483 C97.11771512 -0.07439936 115.57395666 -0.07627576 134.03026143 -0.06818072 C150.18219458 -0.06111095 166.33410781 -0.06104758 182.48604107 -0.06804371 C184.65172083 -0.06895504 186.81740059 -0.0698658 188.98308035 -0.070776 C192.24646388 -0.07215911 195.50984741 -0.0735502 198.77323093 -0.07496213 C229.1171305 -0.08794491 259.4610234 -0.09305468 289.80492401 -0.08142853 C290.94901152 -0.08099056 292.09309904 -0.08055259 293.27185587 -0.08010134 C302.56296436 -0.07649443 311.85407276 -0.0726597 321.14518116 -0.06881041 C357.3915392 -0.05396141 393.63782189 -0.06274362 429.88417149 -0.09076595 C470.5982246 -0.12218204 511.31223311 -0.1371677 552.02629858 -0.12696594 C556.36601864 -0.12592914 560.70573871 -0.12494192 565.04545879 -0.12398243 C566.11402453 -0.12373354 567.18259027 -0.12348466 568.28353679 -0.12322823 C584.42530715 -0.11978585 600.56703815 -0.1291031 616.70880032 -0.14475346 C635.06212729 -0.16250701 653.41535838 -0.16267649 671.76868122 -0.1394018 C682.04245776 -0.12688513 692.31601412 -0.12817952 702.58977782 -0.14928266 C709.45044441 -0.16199077 716.31094112 -0.15655306 723.17158919 -0.13629786 C727.08184415 -0.12526196 730.99166573 -0.12210926 734.90190052 -0.14097316 C739.11477839 -0.16110251 743.32660797 -0.14256573 747.53947449 -0.12025452 C749.3588554 -0.13824203 749.3588554 -0.13824203 751.21499148 -0.15659294 C759.73833832 -0.06407794 766.56067597 1.60235554 772.97799694 7.46660158 C780.77774047 15.52701867 781.27153766 23.92132919 781.21018124 34.64974308 C781.21331368 35.98688349 781.21775969 37.32402135 781.22339433 38.66115355 C781.23507153 42.33660188 781.22808941 46.01181364 781.21806048 49.68725809 C781.21045058 53.68545885 781.22023004 57.68362334 781.22779047 61.68181896 C781.23862965 68.68955368 781.23829433 75.69721908 781.23064899 82.70495701 C781.21931105 93.12562403 781.22509782 103.54623248 781.23427392 113.9668991 C781.25008116 132.57715864 781.24869797 151.18738731 781.24003718 169.7976498 C781.23249511 186.0836475 781.23051826 202.36963388 781.23410511 218.65563297 C781.23444884 220.27509233 781.23444884 220.27509233 781.23479952 221.92726804 C781.23573351 226.30970651 781.23668871 230.69214497 781.23767881 235.07458342 C781.24685901 276.19819995 781.23853036 317.32179679 781.22238812 358.44541028 C781.20815095 394.99366481 781.20942482 431.54188799 781.2237711 468.09014225 C781.2398296 509.13780225 781.24620799 550.18544486 781.2369343 591.23310757 C781.23597213 595.60763263 781.23503361 599.9821577 781.23410511 604.35668278 C781.23374926 605.97240176 781.23374926 605.97240176 781.23338623 607.62076153 C781.22997158 623.89785235 781.23396878 640.17493061 781.24154377 656.45201969 C781.25011251 674.95692306 781.24799635 693.46179068 781.23170154 711.96668959 C781.22287951 722.32747993 781.22233661 732.68819291 781.23364006 743.04898129 C781.24035432 749.96512667 781.23620391 756.88120987 781.22312575 763.79734602 C781.21597298 767.74086999 781.21358329 771.68423996 781.2243437 775.62775922 C781.23403332 779.21535575 781.22991968 782.80266166 781.21480172 786.390237 C781.21035552 788.28817661 781.22061029 790.1861333 781.23146456 792.08404708 C781.17100868 801.21208117 779.8314968 808.08310499 773.50843906 814.97100163 C766.83694577 821.08264933 758.90781748 822.78611027 750.18422031 823.804986 C747.25306787 824.15965545 744.64454834 824.56886103 741.83265781 825.50615788 C740.14119439 825.59831952 738.44628772 825.63211846 736.75231546 825.63265771 C735.69314077 825.63541745 734.63396609 825.63817719 733.54269519 825.64102057 C731.7876071 825.63793759 731.7876071 825.63793759 729.99706268 825.63479233 C728.75395408 825.63654537 727.51084548 825.6382984 726.23006693 825.64010456 C722.75757516 825.64485412 719.28510948 825.6433266 715.8126164 825.64082679 C712.04301954 825.63919945 708.27342841 825.64332976 704.50383335 825.64673597 C697.88966063 825.65190075 691.27549523 825.65330531 684.66132069 825.65227985 C674.82567283 825.65075866 664.99003312 825.65490843 655.15438684 825.66015448 C636.56680071 825.66984111 617.97921733 825.67263923 599.39162897 825.67321154 C585.03823693 825.67367059 570.68484597 825.67572639 556.33145428 825.67891216 C552.20391641 825.67980968 548.07637855 825.68069949 543.94884068 825.68158704 C542.92279219 825.68180809 541.89674369 825.68202914 540.83960282 825.68225688 C511.96538005 825.68841397 483.09115766 825.69235716 454.2169342 825.6919136 C453.12759929 825.69189803 452.03826437 825.69188245 450.9159193 825.6918664 C445.39439113 825.69178329 439.87286297 825.69168424 434.3513348 825.69158169 C433.2546902 825.69156174 432.1580456 825.6915418 431.02816934 825.69152125 C428.81048382 825.69148081 426.59279829 825.69143901 424.37511276 825.69139586 C389.87519843 825.69078317 355.37529394 825.69828733 320.87538242 825.71196842 C282.13684946 825.72732394 243.39832296 825.73593494 204.65978676 825.7350052 C200.53004841 825.73493057 196.40031006 825.73488186 192.27057171 825.73485088 C190.74524417 825.7348334 190.74524417 825.7348334 189.18910194 825.73481557 C172.81222747 825.73478477 156.43536152 825.74117554 140.05848958 825.74978315 C123.6017111 825.7582539 107.14494511 825.75925415 90.68816566 825.75267383 C80.90771982 825.74897408 71.12731186 825.75082317 61.34687003 825.76061617 C54.81484187 825.76660464 48.28284123 825.76533333 41.75081435 825.75814567 C38.02825153 825.75425453 34.30576216 825.75351619 30.58320444 825.76160302 C26.57179215 825.77024105 22.56055378 825.76339205 18.54914093 825.75504684 C17.39547036 825.76001502 16.2417998 825.7649832 15.05316952 825.77010193 C8.39252872 825.74071262 2.31082034 825.02364061 -4.16734219 823.50615788 C-6.08302202 823.18766431 -7.9994858 822.87377139 -9.91734219 822.56865788 C-17.89490771 821.10087545 -24.66087888 817.38563392 -29.46421719 810.70147038 C-32.43399283 805.68728396 -33.29176898 801.76410408 -33.29614335 796.01948774 C-33.29941555 794.8949954 -33.30268774 793.77050306 -33.30605909 792.6119352 C-33.30457547 791.37391228 -33.30309184 790.13588937 -33.30156326 788.86035061 C-33.30391549 787.54179972 -33.30626772 786.22324884 -33.30869123 784.86474186 C-33.31510278 781.18533053 -33.31525194 777.505941 -33.31441382 773.82652515 C-33.3145831 769.83088148 -33.32048667 765.83524568 -33.32565469 761.83960593 C-33.33499086 753.90595526 -33.33890444 745.97231017 -33.34117365 738.03865469 C-33.34413306 728.5393179 -33.35282889 719.03998854 -33.36158793 709.54065565 C-33.38244353 686.57887386 -33.39290367 663.61709077 -33.40171754 640.65530172 C-33.40592224 629.79622644 -33.41114445 618.93715172 -33.41640207 608.07807691 C-33.43429274 570.91793256 -33.44928971 533.75778805 -33.45672226 496.59764004 C-33.45719702 494.26422522 -33.45767291 491.9308104 -33.45814992 489.59739558 C-33.4583863 488.44021422 -33.45862267 487.28303287 -33.45886621 486.09078541 C-33.46006743 480.22777805 -33.46128287 474.3647707 -33.4625082 468.50176334 C-33.46274835 467.33822518 -33.4629885 466.17468701 -33.46323593 464.97589012 C-33.47113095 427.24109371 -33.49456673 389.50632871 -33.52706415 351.77154602 C-33.56134686 311.89105172 -33.58107193 272.0105758 -33.5843665 232.13006651 C-33.58478405 227.75375818 -33.58526362 223.37744987 -33.58578968 219.00114155 C-33.58591287 217.9235444 -33.58603606 216.84594726 -33.58616299 215.73569566 C-33.5884969 198.37974907 -33.60416745 181.02383891 -33.62463153 163.66790531 C-33.64486774 146.22881935 -33.65037726 128.78977723 -33.64086089 111.35068171 C-33.63563743 100.9858597 -33.64156327 90.62118346 -33.66339556 80.25638237 C-33.67687514 73.33486502 -33.67585186 66.41344832 -33.66299361 59.49193003 C-33.65607803 55.54686473 -33.65549176 51.60207869 -33.6725537 47.65703802 C-33.68795976 44.06562717 -33.68483468 40.47471997 -33.66714342 36.883324 C-33.66252468 34.98819959 -33.6774763 33.09305801 -33.6933032 31.19799405 C-33.61200868 21.17828552 -31.61546287 13.30958074 -24.43687344 6.07647038 C-16.55993591 0.6263346 -9.42467714 -0.07040863 0 0 Z " fill="#909090" transform="translate(126.16734218597412,94.49384212493896)"/>
<path d="M0 0 C1.31418987 -0.00611336 2.62837973 -0.01222672 3.98239353 -0.01852533 C7.62639761 -0.03490307 11.26998264 -0.02646178 14.91398626 -0.0139137 C18.87981815 -0.00466026 22.84558037 -0.01859643 26.81139857 -0.02955288 C33.76080017 -0.04553722 40.71008068 -0.04663188 47.65949345 -0.03795528 C57.99350844 -0.02508751 68.32741388 -0.03504325 78.6614223 -0.04945483 C97.11771512 -0.07439936 115.57395666 -0.07627576 134.03026143 -0.06818072 C150.18219458 -0.06111095 166.33410781 -0.06104758 182.48604107 -0.06804371 C184.65172083 -0.06895504 186.81740059 -0.0698658 188.98308035 -0.070776 C192.24646388 -0.07215911 195.50984741 -0.0735502 198.77323093 -0.07496213 C229.1171305 -0.08794491 259.4610234 -0.09305468 289.80492401 -0.08142853 C290.94901152 -0.08099056 292.09309904 -0.08055259 293.27185587 -0.08010134 C302.56296436 -0.07649443 311.85407276 -0.0726597 321.14518116 -0.06881041 C357.3915392 -0.05396141 393.63782189 -0.06274362 429.88417149 -0.09076595 C470.5982246 -0.12218204 511.31223311 -0.1371677 552.02629858 -0.12696594 C556.36601864 -0.12592914 560.70573871 -0.12494192 565.04545879 -0.12398243 C566.11402453 -0.12373354 567.18259027 -0.12348466 568.28353679 -0.12322823 C584.42530715 -0.11978585 600.56703815 -0.1291031 616.70880032 -0.14475346 C635.06212729 -0.16250701 653.41535838 -0.16267649 671.76868122 -0.1394018 C682.04245776 -0.12688513 692.31601412 -0.12817952 702.58977782 -0.14928266 C709.45044441 -0.16199077 716.31094112 -0.15655306 723.17158919 -0.13629786 C727.08184415 -0.12526196 730.99166573 -0.12210926 734.90190052 -0.14097316 C739.11477839 -0.16110251 743.32660797 -0.14256573 747.53947449 -0.12025452 C749.3588554 -0.13824203 749.3588554 -0.13824203 751.21499148 -0.15659294 C759.73833832 -0.06407794 766.56067597 1.60235554 772.97799694 7.46660158 C780.77774047 15.52701867 781.27153766 23.92132919 781.21018124 34.64974308 C781.21331368 35.98688349 781.21775969 37.32402135 781.22339433 38.66115355 C781.23507153 42.33660188 781.22808941 46.01181364 781.21806048 49.68725809 C781.21045058 53.68545885 781.22023004 57.68362334 781.22779047 61.68181896 C781.23862965 68.68955368 781.23829433 75.69721908 781.23064899 82.70495701 C781.21931105 93.12562403 781.22509782 103.54623248 781.23427392 113.9668991 C781.25008116 132.57715864 781.24869797 151.18738731 781.24003718 169.7976498 C781.23249511 186.0836475 781.23051826 202.36963388 781.23410511 218.65563297 C781.23444884 220.27509233 781.23444884 220.27509233 781.23479952 221.92726804 C781.23573351 226.30970651 781.23668871 230.69214497 781.23767881 235.07458342 C781.24685901 276.19819995 781.23853036 317.32179679 781.22238812 358.44541028 C781.20815095 394.99366481 781.20942482 431.54188799 781.2237711 468.09014225 C781.2398296 509.13780225 781.24620799 550.18544486 781.2369343 591.23310757 C781.23597213 595.60763263 781.23503361 599.9821577 781.23410511 604.35668278 C781.23374926 605.97240176 781.23374926 605.97240176 781.23338623 607.62076153 C781.22997158 623.89785235 781.23396878 640.17493061 781.24154377 656.45201969 C781.25011251 674.95692306 781.24799635 693.46179068 781.23170154 711.96668959 C781.22287951 722.32747993 781.22233661 732.68819291 781.23364006 743.04898129 C781.24035432 749.96512667 781.23620391 756.88120987 781.22312575 763.79734602 C781.21597298 767.74086999 781.21358329 771.68423996 781.2243437 775.62775922 C781.23403332 779.21535575 781.22991968 782.80266166 781.21480172 786.390237 C781.21035552 788.28817661 781.22061029 790.1861333 781.23146456 792.08404708 C781.17100868 801.21208117 779.8314968 808.08310499 773.50843906 814.97100163 C766.83694577 821.08264933 758.90781748 822.78611027 750.18422031 823.804986 C747.25306787 824.15965545 744.64454834 824.56886103 741.83265781 825.50615788 C740.14119439 825.59831952 738.44628772 825.63211846 736.75231546 825.63265771 C735.69314077 825.63541745 734.63396609 825.63817719 733.54269519 825.64102057 C731.7876071 825.63793759 731.7876071 825.63793759 729.99706268 825.63479233 C728.75395408 825.63654537 727.51084548 825.6382984 726.23006693 825.64010456 C722.75757516 825.64485412 719.28510948 825.6433266 715.8126164 825.64082679 C712.04301954 825.63919945 708.27342841 825.64332976 704.50383335 825.64673597 C697.88966063 825.65190075 691.27549523 825.65330531 684.66132069 825.65227985 C674.82567283 825.65075866 664.99003312 825.65490843 655.15438684 825.66015448 C636.56680071 825.66984111 617.97921733 825.67263923 599.39162897 825.67321154 C585.03823693 825.67367059 570.68484597 825.67572639 556.33145428 825.67891216 C552.20391641 825.67980968 548.07637855 825.68069949 543.94884068 825.68158704 C542.92279219 825.68180809 541.89674369 825.68202914 540.83960282 825.68225688 C511.96538005 825.68841397 483.09115766 825.69235716 454.2169342 825.6919136 C453.12759929 825.69189803 452.03826437 825.69188245 450.9159193 825.6918664 C445.39439113 825.69178329 439.87286297 825.69168424 434.3513348 825.69158169 C433.2546902 825.69156174 432.1580456 825.6915418 431.02816934 825.69152125 C428.81048382 825.69148081 426.59279829 825.69143901 424.37511276 825.69139586 C389.87519843 825.69078317 355.37529394 825.69828733 320.87538242 825.71196842 C282.13684946 825.72732394 243.39832296 825.73593494 204.65978676 825.7350052 C200.53004841 825.73493057 196.40031006 825.73488186 192.27057171 825.73485088 C190.74524417 825.7348334 190.74524417 825.7348334 189.18910194 825.73481557 C172.81222747 825.73478477 156.43536152 825.74117554 140.05848958 825.74978315 C123.6017111 825.7582539 107.14494511 825.75925415 90.68816566 825.75267383 C80.90771982 825.74897408 71.12731186 825.75082317 61.34687003 825.76061617 C54.81484187 825.76660464 48.28284123 825.76533333 41.75081435 825.75814567 C38.02825153 825.75425453 34.30576216 825.75351619 30.58320444 825.76160302 C26.57179215 825.77024105 22.56055378 825.76339205 18.54914093 825.75504684 C17.39547036 825.76001502 16.2417998 825.7649832 15.05316952 825.77010193 C8.39252872 825.74071262 2.31082034 825.02364061 -4.16734219 823.50615788 C-6.08302202 823.18766431 -7.9994858 822.87377139 -9.91734219 822.56865788 C-17.89490771 821.10087545 -24.66087888 817.38563392 -29.46421719 810.70147038 C-32.43399283 805.68728396 -33.29176898 801.76410408 -33.29614335 796.01948774 C-33.29941555 794.8949954 -33.30268774 793.77050306 -33.30605909 792.6119352 C-33.30457547 791.37391228 -33.30309184 790.13588937 -33.30156326 788.86035061 C-33.30391549 787.54179972 -33.30626772 786.22324884 -33.30869123 784.86474186 C-33.31510278 781.18533053 -33.31525194 777.505941 -33.31441382 773.82652515 C-33.3145831 769.83088148 -33.32048667 765.83524568 -33.32565469 761.83960593 C-33.33499086 753.90595526 -33.33890444 745.97231017 -33.34117365 738.03865469 C-33.34413306 728.5393179 -33.35282889 719.03998854 -33.36158793 709.54065565 C-33.38244353 686.57887386 -33.39290367 663.61709077 -33.40171754 640.65530172 C-33.40592224 629.79622644 -33.41114445 618.93715172 -33.41640207 608.07807691 C-33.43429274 570.91793256 -33.44928971 533.75778805 -33.45672226 496.59764004 C-33.45719702 494.26422522 -33.45767291 491.9308104 -33.45814992 489.59739558 C-33.4583863 488.44021422 -33.45862267 487.28303287 -33.45886621 486.09078541 C-33.46006743 480.22777805 -33.46128287 474.3647707 -33.4625082 468.50176334 C-33.46274835 467.33822518 -33.4629885 466.17468701 -33.46323593 464.97589012 C-33.47113095 427.24109371 -33.49456673 389.50632871 -33.52706415 351.77154602 C-33.56134686 311.89105172 -33.58107193 272.0105758 -33.5843665 232.13006651 C-33.58478405 227.75375818 -33.58526362 223.37744987 -33.58578968 219.00114155 C-33.58591287 217.9235444 -33.58603606 216.84594726 -33.58616299 215.73569566 C-33.5884969 198.37974907 -33.60416745 181.02383891 -33.62463153 163.66790531 C-33.64486774 146.22881935 -33.65037726 128.78977723 -33.64086089 111.35068171 C-33.63563743 100.9858597 -33.64156327 90.62118346 -33.66339556 80.25638237 C-33.67687514 73.33486502 -33.67585186 66.41344832 -33.66299361 59.49193003 C-33.65607803 55.54686473 -33.65549176 51.60207869 -33.6725537 47.65703802 C-33.68795976 44.06562717 -33.68483468 40.47471997 -33.66714342 36.883324 C-33.66252468 34.98819959 -33.6774763 33.09305801 -33.6933032 31.19799405 C-33.61200868 21.17828552 -31.61546287 13.30958074 -24.43687344 6.07647038 C-16.55993591 0.6263346 -9.42467714 -0.07040863 0 0 Z M23.83265781 63.50615788 C19.49306274 69.60721018 19.26394254 74.45592061 19.32929325 81.82325935 C19.32347949 82.96172903 19.31766572 84.1001987 19.31167579 85.27316746 C19.29702908 89.10414186 19.31098379 92.93448029 19.32472324 96.76545048 C19.3223335 99.5333924 19.31392891 102.30130881 19.30581427 105.06923908 C19.29136265 111.09569079 19.29180867 117.1219992 19.30200291 123.14845753 C19.31712136 132.11029669 19.30940371 141.07201477 19.29716968 150.03385309 C19.27609215 166.04083134 19.2779385 182.04774578 19.28948533 198.05473011 C19.29954362 212.06698287 19.30217623 226.07921223 19.29739475 240.09146786 C19.29708921 241.02057997 19.29678367 241.94969208 19.29646887 242.90695911 C19.29522352 246.67851116 19.29394993 250.45006319 19.29262982 254.22161522 C19.28038856 289.61677959 19.29149471 325.01190331 19.31301741 360.40706141 C19.33198942 391.84644674 19.33031112 423.28576726 19.31117344 454.72515202 C19.28974579 490.04459994 19.28126764 525.3640119 19.29362249 560.68346542 C19.29490535 564.45035612 19.29615672 568.21724682 19.29739475 571.98413754 C19.29771106 572.91164523 19.29802737 573.83915293 19.29835327 574.79476692 C19.30290048 588.79259907 19.29758681 602.79040521 19.28747654 616.78823376 C19.27603249 632.71212706 19.27891322 648.63594655 19.30059952 664.55983067 C19.31233236 673.46855695 19.31312937 682.37712331 19.29801482 691.28584539 C19.28902598 697.24178568 19.29466226 703.19759813 19.31203389 709.15351953 C19.32152097 712.54382935 19.32264593 715.9335629 19.31040996 719.32390244 C18.82695874 742.10181846 18.82695874 742.10181846 27.83265781 762.50615788 C30.15055159 764.59047324 30.15055159 764.59047324 32.70765781 766.25615788 C33.53007969 766.82850163 34.35250156 767.40084538 35.19984531 767.99053288 C41.32840308 771.51854536 46.77639982 771.79046433 53.66551304 771.74666691 C54.65069215 771.74837576 55.63587127 771.75008461 56.6509043 771.75184524 C59.94903046 771.75513708 63.24695277 771.74414133 66.54506016 771.73320866 C68.91044707 771.73264448 71.27583434 771.73296123 73.64122105 771.73409367 C80.06217922 771.73466792 86.4830628 771.72290182 92.90400362 771.70894575 C98.93462178 771.69676129 104.9652482 771.69569953 110.99587639 771.69364201 C122.93871734 771.68926749 134.88153093 771.67596499 146.82435703 771.65703678 C158.42396502 771.63867168 170.02356556 771.62451826 181.62318516 771.61602116 C182.33848776 771.61549571 183.05379035 771.61497026 183.79076879 771.61442889 C187.37932204 771.61181877 190.96787534 771.60929137 194.55642867 771.60680509 C224.31519053 771.58608017 254.07392165 771.55071232 283.83265781 771.50615788 C285.88172305 766.31702772 287.93061314 761.12782846 289.97935104 755.93856907 C290.67423944 754.17855114 291.36917313 752.41855108 292.06415558 750.65857029 C297.28002547 737.44972155 302.47760815 724.23399529 307.64515781 711.00615788 C308.39704557 709.08295523 309.14900093 707.15977902 309.90101719 705.23662663 C311.44570513 701.28620517 312.99011793 697.33567632 314.53431797 693.38506413 C317.92409728 684.71349388 321.31750571 676.04334382 324.71067905 667.37310123 C326.58482429 662.58417972 328.45872873 657.79516398 330.33265781 653.00615788 C331.08265666 651.08949076 331.83265666 649.17282409 332.58265781 647.25615788 C332.95390781 646.30740788 333.32515781 645.35865788 333.70765781 644.38115788 C340.83265781 626.17282454 347.95765781 607.96449121 355.08265781 589.75615788 C355.45389774 588.80743305 355.82513767 587.85870823 356.2076273 586.88123417 C356.95772749 584.96431259 357.70782921 583.04739161 358.45793247 581.13047123 C360.33141212 576.34270966 362.20486522 571.5549377 364.07826328 566.7671442 C367.47137866 558.09552665 370.86469501 549.423988 374.25898838 540.75283146 C381.79251376 521.50743341 389.32210243 502.2605332 396.83265781 483.00615788 C404.72341771 462.7770743 412.63552303 442.55636965 420.55043125 422.33672428 C423.93763221 413.68349847 427.32360892 405.0297936 430.70967197 396.37612247 C432.58394987 391.58611443 434.45830792 386.79613775 436.33265781 382.00615788 C437.0826582 380.08949136 437.8326582 378.17282469 438.58265781 376.25615788 C443.08265779 364.75615793 443.08265779 364.75615793 444.20764256 361.88120365 C444.95769955 359.9643868 445.70775042 358.04756754 446.45779514 356.13074589 C448.33187275 351.34135737 450.20605672 346.55201053 452.08046055 341.76274967 C456.22404003 331.17517707 460.36488679 320.58654337 464.50245762 309.99662113 C467.48678477 302.35986937 470.47829826 294.72594764 473.47194004 287.09284306 C475.76072729 281.25335735 478.03700569 275.40915311 480.30523777 269.56165409 C481.82069224 265.65958031 483.34374696 261.76050001 484.86827183 257.86196232 C485.58034717 256.03612351 486.28924493 254.20904143 486.99455357 252.38057804 C500.34872182 217.77718435 500.34872182 217.77718435 515.62172031 209.45147038 C523.33114939 206.15521271 532.04806144 206.49466831 539.77015781 209.44365788 C553.518236 215.89249867 560.79437749 224.81196799 569.13099766 237.04619694 C571.99622695 241.18824147 575.01394267 245.21593194 578.02015781 249.25615788 C582.83791222 255.77159091 587.59133424 262.32733561 592.28578281 268.93193913 C595.21808515 273.05505362 598.18114058 277.15580982 601.14515781 281.25615788 C601.69308994 282.01420719 602.24102207 282.77225651 602.8055582 283.55327702 C603.92338234 285.09948885 605.04130285 286.64563101 606.15931797 288.19170475 C608.34532029 291.21523875 610.52976844 294.23989339 612.71400547 297.2647028 C613.79554463 298.76238169 614.87725113 300.25993976 615.95912266 301.75737858 C618.65806954 305.4932296 621.35493323 309.23055021 624.04750156 312.97100163 C629.66168959 320.76531635 635.31151165 328.53069388 641.02015781 336.25615788 C645.8355271 342.77338661 650.59130255 349.32729103 655.28578281 355.93193913 C658.21808515 360.05505362 661.18114058 364.15580982 664.14515781 368.25615788 C664.69308994 369.01420719 665.24102207 369.77225651 665.8055582 370.55327702 C666.92338234 372.09948885 668.04130285 373.64563101 669.15931797 375.19170475 C671.34532029 378.21523875 673.52976844 381.23989339 675.71400547 384.2647028 C676.79554463 385.76238169 677.87725113 387.25993976 678.95912266 388.75737858 C681.65806954 392.4932296 684.35493323 396.23055021 687.04750156 399.97100163 C693.17308633 408.47545426 699.3456349 416.94237617 705.57997227 425.367486 C708.56984368 429.4136643 711.53669504 433.47407654 714.46547031 437.56475163 C715.34525547 438.79258366 715.34525547 438.79258366 716.24281406 440.04522038 C717.35549632 441.60145479 718.46506346 443.15992299 719.57093906 444.72100163 C720.07238438 445.42225163 720.57382969 446.12350163 721.09047031 446.84600163 C721.52504551 447.45822575 721.9596207 448.07044987 722.40736485 448.70122623 C724.06781939 450.8039567 725.92770505 452.62485845 727.83265781 454.50615788 C727.96997435 405.74006852 728.07570737 356.97399869 728.13904979 308.20775405 C728.14655408 302.45118326 728.15432001 296.69461286 728.16224766 290.93804264 C728.16382152 289.79200736 728.16539538 288.64597208 728.16701694 287.46520846 C728.19312875 268.90583191 728.24043843 250.3465668 728.29557459 231.78725637 C728.35167279 212.7453809 728.38500821 193.70356383 728.39718878 174.66160911 C728.40542377 162.91052102 728.43143826 151.15974792 728.48015662 139.40875679 C728.51185885 131.35195963 728.52146143 123.29532545 728.51366608 115.23847044 C728.50982092 110.5891526 728.51573784 105.94038542 728.54789066 101.29116535 C728.57712676 97.03257885 728.57853999 92.77491234 728.55805118 88.51628315 C728.55551965 86.97775664 728.56310064 85.43917232 728.58195691 83.90075929 C728.68417175 75.04470556 728.22390783 68.18739088 721.83265781 61.50615788 C713.93776511 54.43200724 707.08401122 53.20831635 696.68710709 53.24888897 C694.98901661 53.24362986 694.98901661 53.24362986 693.25662127 53.2382645 C689.44164234 53.22891853 685.62681498 53.23388213 681.81182957 53.23873234 C679.05769473 53.236102 676.3035678 53.23047691 673.54943734 53.22500169 C667.55020814 53.21469066 661.55101121 53.21185981 655.55177402 53.21391392 C646.63063641 53.21696102 637.70953458 53.20864639 628.78840392 53.19816467 C611.92901455 53.17880981 595.06963734 53.1731959 578.21023818 53.17205055 C565.19224351 53.17113194 552.17425361 53.16701777 539.15626049 53.1606493 C535.41088894 53.15885425 531.66551737 53.15707462 527.92014581 53.15529954 C526.98907233 53.15485745 526.05799885 53.15441535 525.09871102 53.15395986 C498.90481613 53.14164928 472.7109229 53.13375896 446.51702499 53.13464642 C445.5291974 53.13467757 444.54136981 53.13470873 443.52360805 53.13474083 C438.51672975 53.13490705 433.50985146 53.13510513 428.50297316 53.13531025 C427.50856428 53.13535014 426.5141554 53.13539003 425.48961291 53.13543113 C423.47867554 53.135512 421.46773816 53.1355956 419.45680078 53.13568191 C388.16531983 53.1369076 356.87388222 53.12189184 325.58241367 53.09453678 C290.43808648 53.06382631 255.29378777 53.04660365 220.14944631 53.04846323 C216.40313168 53.04861249 212.65681706 53.0487099 208.91050243 53.04877186 C207.52681437 53.04880682 207.52681437 53.04880682 206.115173 53.04884249 C191.26039019 53.04890408 176.40564494 53.03612391 161.5508733 53.01890733 C146.62578877 53.00196682 131.70075931 52.9999646 116.77567049 53.01312597 C107.90588323 53.0205256 99.03626308 53.01682701 90.16649347 52.99724129 C84.24286647 52.98526485 78.31936083 52.98780625 72.39573946 53.00218229 C69.01975554 53.00996531 65.64436043 53.00923947 62.26835682 52.99526758 C58.6305159 52.98120598 54.99354289 52.99168751 51.35573196 53.00837994 C49.78621514 52.9934754 49.78621514 52.9934754 48.18499091 52.97826976 C38.62567875 53.07131213 30.2226276 56.1211563 23.83265781 63.50615788 Z " fill="#6D6D6D" transform="translate(126.16734218597412,94.49384212493896)"/>
<path d="M0 0 C1.31418987 -0.00611336 2.62837973 -0.01222672 3.98239353 -0.01852533 C7.62639761 -0.03490307 11.26998264 -0.02646178 14.91398626 -0.0139137 C18.87981815 -0.00466026 22.84558037 -0.01859643 26.81139857 -0.02955288 C33.76080017 -0.04553722 40.71008068 -0.04663188 47.65949345 -0.03795528 C57.99350844 -0.02508751 68.32741388 -0.03504325 78.6614223 -0.04945483 C97.11771512 -0.07439936 115.57395666 -0.07627576 134.03026143 -0.06818072 C150.18219458 -0.06111095 166.33410781 -0.06104758 182.48604107 -0.06804371 C184.65172083 -0.06895504 186.81740059 -0.0698658 188.98308035 -0.070776 C192.24646388 -0.07215911 195.50984741 -0.0735502 198.77323093 -0.07496213 C229.1171305 -0.08794491 259.4610234 -0.09305468 289.80492401 -0.08142853 C290.94901152 -0.08099056 292.09309904 -0.08055259 293.27185587 -0.08010134 C302.56296436 -0.07649443 311.85407276 -0.0726597 321.14518116 -0.06881041 C357.3915392 -0.05396141 393.63782189 -0.06274362 429.88417149 -0.09076595 C470.5982246 -0.12218204 511.31223311 -0.1371677 552.02629858 -0.12696594 C556.36601864 -0.12592914 560.70573871 -0.12494192 565.04545879 -0.12398243 C566.11402453 -0.12373354 567.18259027 -0.12348466 568.28353679 -0.12322823 C584.42530715 -0.11978585 600.56703815 -0.1291031 616.70880032 -0.14475346 C635.06212729 -0.16250701 653.41535838 -0.16267649 671.76868122 -0.1394018 C682.04245776 -0.12688513 692.31601412 -0.12817952 702.58977782 -0.14928266 C709.45044441 -0.16199077 716.31094112 -0.15655306 723.17158919 -0.13629786 C727.08184415 -0.12526196 730.99166573 -0.12210926 734.90190052 -0.14097316 C739.11477839 -0.16110251 743.32660797 -0.14256573 747.53947449 -0.12025452 C749.3588554 -0.13824203 749.3588554 -0.13824203 751.21499148 -0.15659294 C759.73833832 -0.06407794 766.56067597 1.60235554 772.97799694 7.46660158 C780.77774047 15.52701867 781.27153766 23.92132919 781.21018124 34.64974308 C781.21331368 35.98688349 781.21775969 37.32402135 781.22339433 38.66115355 C781.23507153 42.33660188 781.22808941 46.01181364 781.21806048 49.68725809 C781.21045058 53.68545885 781.22023004 57.68362334 781.22779047 61.68181896 C781.23862965 68.68955368 781.23829433 75.69721908 781.23064899 82.70495701 C781.21931105 93.12562403 781.22509782 103.54623248 781.23427392 113.9668991 C781.25008116 132.57715864 781.24869797 151.18738731 781.24003718 169.7976498 C781.23249511 186.0836475 781.23051826 202.36963388 781.23410511 218.65563297 C781.23444884 220.27509233 781.23444884 220.27509233 781.23479952 221.92726804 C781.23573351 226.30970651 781.23668871 230.69214497 781.23767881 235.07458342 C781.24685901 276.19819995 781.23853036 317.32179679 781.22238812 358.44541028 C781.20815095 394.99366481 781.20942482 431.54188799 781.2237711 468.09014225 C781.2398296 509.13780225 781.24620799 550.18544486 781.2369343 591.23310757 C781.23597213 595.60763263 781.23503361 599.9821577 781.23410511 604.35668278 C781.23374926 605.97240176 781.23374926 605.97240176 781.23338623 607.62076153 C781.22997158 623.89785235 781.23396878 640.17493061 781.24154377 656.45201969 C781.25011251 674.95692306 781.24799635 693.46179068 781.23170154 711.96668959 C781.22287951 722.32747993 781.22233661 732.68819291 781.23364006 743.04898129 C781.24035432 749.96512667 781.23620391 756.88120987 781.22312575 763.79734602 C781.21597298 767.74086999 781.21358329 771.68423996 781.2243437 775.62775922 C781.23403332 779.21535575 781.22991968 782.80266166 781.21480172 786.390237 C781.21035552 788.28817661 781.22061029 790.1861333 781.23146456 792.08404708 C781.17100868 801.21208117 779.8314968 808.08310499 773.50843906 814.97100163 C766.83694577 821.08264933 758.90781748 822.78611027 750.18422031 823.804986 C747.25306787 824.15965545 744.64454834 824.56886103 741.83265781 825.50615788 C740.14119439 825.59831952 738.44628772 825.63211846 736.75231546 825.63265771 C735.69314077 825.63541745 734.63396609 825.63817719 733.54269519 825.64102057 C731.7876071 825.63793759 731.7876071 825.63793759 729.99706268 825.63479233 C728.75395408 825.63654537 727.51084548 825.6382984 726.23006693 825.64010456 C722.75757516 825.64485412 719.28510948 825.6433266 715.8126164 825.64082679 C712.04301954 825.63919945 708.27342841 825.64332976 704.50383335 825.64673597 C697.88966063 825.65190075 691.27549523 825.65330531 684.66132069 825.65227985 C674.82567283 825.65075866 664.99003312 825.65490843 655.15438684 825.66015448 C636.56680071 825.66984111 617.97921733 825.67263923 599.39162897 825.67321154 C585.03823693 825.67367059 570.68484597 825.67572639 556.33145428 825.67891216 C552.20391641 825.67980968 548.07637855 825.68069949 543.94884068 825.68158704 C542.92279219 825.68180809 541.89674369 825.68202914 540.83960282 825.68225688 C511.96538005 825.68841397 483.09115766 825.69235716 454.2169342 825.6919136 C453.12759929 825.69189803 452.03826437 825.69188245 450.9159193 825.6918664 C445.39439113 825.69178329 439.87286297 825.69168424 434.3513348 825.69158169 C433.2546902 825.69156174 432.1580456 825.6915418 431.02816934 825.69152125 C428.81048382 825.69148081 426.59279829 825.69143901 424.37511276 825.69139586 C389.87519843 825.69078317 355.37529394 825.69828733 320.87538242 825.71196842 C282.13684946 825.72732394 243.39832296 825.73593494 204.65978676 825.7350052 C200.53004841 825.73493057 196.40031006 825.73488186 192.27057171 825.73485088 C190.74524417 825.7348334 190.74524417 825.7348334 189.18910194 825.73481557 C172.81222747 825.73478477 156.43536152 825.74117554 140.05848958 825.74978315 C123.6017111 825.7582539 107.14494511 825.75925415 90.68816566 825.75267383 C80.90771982 825.74897408 71.12731186 825.75082317 61.34687003 825.76061617 C54.81484187 825.76660464 48.28284123 825.76533333 41.75081435 825.75814567 C38.02825153 825.75425453 34.30576216 825.75351619 30.58320444 825.76160302 C26.57179215 825.77024105 22.56055378 825.76339205 18.54914093 825.75504684 C17.39547036 825.76001502 16.2417998 825.7649832 15.05316952 825.77010193 C8.39252872 825.74071262 2.31082034 825.02364061 -4.16734219 823.50615788 C-6.08302202 823.18766431 -7.9994858 822.87377139 -9.91734219 822.56865788 C-17.89490771 821.10087545 -24.66087888 817.38563392 -29.46421719 810.70147038 C-32.43399283 805.68728396 -33.29176898 801.76410408 -33.29614335 796.01948774 C-33.29941555 794.8949954 -33.30268774 793.77050306 -33.30605909 792.6119352 C-33.30457547 791.37391228 -33.30309184 790.13588937 -33.30156326 788.86035061 C-33.30391549 787.54179972 -33.30626772 786.22324884 -33.30869123 784.86474186 C-33.31510278 781.18533053 -33.31525194 777.505941 -33.31441382 773.82652515 C-33.3145831 769.83088148 -33.32048667 765.83524568 -33.32565469 761.83960593 C-33.33499086 753.90595526 -33.33890444 745.97231017 -33.34117365 738.03865469 C-33.34413306 728.5393179 -33.35282889 719.03998854 -33.36158793 709.54065565 C-33.38244353 686.57887386 -33.39290367 663.61709077 -33.40171754 640.65530172 C-33.40592224 629.79622644 -33.41114445 618.93715172 -33.41640207 608.07807691 C-33.43429274 570.91793256 -33.44928971 533.75778805 -33.45672226 496.59764004 C-33.45719702 494.26422522 -33.45767291 491.9308104 -33.45814992 489.59739558 C-33.4583863 488.44021422 -33.45862267 487.28303287 -33.45886621 486.09078541 C-33.46006743 480.22777805 -33.46128287 474.3647707 -33.4625082 468.50176334 C-33.46274835 467.33822518 -33.4629885 466.17468701 -33.46323593 464.97589012 C-33.47113095 427.24109371 -33.49456673 389.50632871 -33.52706415 351.77154602 C-33.56134686 311.89105172 -33.58107193 272.0105758 -33.5843665 232.13006651 C-33.58478405 227.75375818 -33.58526362 223.37744987 -33.58578968 219.00114155 C-33.58591287 217.9235444 -33.58603606 216.84594726 -33.58616299 215.73569566 C-33.5884969 198.37974907 -33.60416745 181.02383891 -33.62463153 163.66790531 C-33.64486774 146.22881935 -33.65037726 128.78977723 -33.64086089 111.35068171 C-33.63563743 100.9858597 -33.64156327 90.62118346 -33.66339556 80.25638237 C-33.67687514 73.33486502 -33.67585186 66.41344832 -33.66299361 59.49193003 C-33.65607803 55.54686473 -33.65549176 51.60207869 -33.6725537 47.65703802 C-33.68795976 44.06562717 -33.68483468 40.47471997 -33.66714342 36.883324 C-33.66252468 34.98819959 -33.6774763 33.09305801 -33.6933032 31.19799405 C-33.61200868 21.17828552 -31.61546287 13.30958074 -24.43687344 6.07647038 C-16.55993591 0.6263346 -9.42467714 -0.07040863 0 0 Z M23.83265781 63.50615788 C19.49306274 69.60721018 19.26394254 74.45592061 19.32929325 81.82325935 C19.32347949 82.96172903 19.31766572 84.1001987 19.31167579 85.27316746 C19.29702908 89.10414186 19.31098379 92.93448029 19.32472324 96.76545048 C19.3223335 99.5333924 19.31392891 102.30130881 19.30581427 105.06923908 C19.29136265 111.09569079 19.29180867 117.1219992 19.30200291 123.14845753 C19.31712136 132.11029669 19.30940371 141.07201477 19.29716968 150.03385309 C19.27609215 166.04083134 19.2779385 182.04774578 19.28948533 198.05473011 C19.29954362 212.06698287 19.30217623 226.07921223 19.29739475 240.09146786 C19.29708921 241.02057997 19.29678367 241.94969208 19.29646887 242.90695911 C19.29522352 246.67851116 19.29394993 250.45006319 19.29262982 254.22161522 C19.28038856 289.61677959 19.29149471 325.01190331 19.31301741 360.40706141 C19.33198942 391.84644674 19.33031112 423.28576726 19.31117344 454.72515202 C19.28974579 490.04459994 19.28126764 525.3640119 19.29362249 560.68346542 C19.29490535 564.45035612 19.29615672 568.21724682 19.29739475 571.98413754 C19.29771106 572.91164523 19.29802737 573.83915293 19.29835327 574.79476692 C19.30290048 588.79259907 19.29758681 602.79040521 19.28747654 616.78823376 C19.27603249 632.71212706 19.27891322 648.63594655 19.30059952 664.55983067 C19.31233236 673.46855695 19.31312937 682.37712331 19.29801482 691.28584539 C19.28902598 697.24178568 19.29466226 703.19759813 19.31203389 709.15351953 C19.32152097 712.54382935 19.32264593 715.9335629 19.31040996 719.32390244 C18.82695874 742.10181846 18.82695874 742.10181846 27.83265781 762.50615788 C30.15055159 764.59047324 30.15055159 764.59047324 32.70765781 766.25615788 C33.53007969 766.82850163 34.35250156 767.40084538 35.19984531 767.99053288 C41.68843835 771.72580602 47.58310417 771.79736869 54.88171101 771.78183746 C56.00334149 771.78733151 57.12497197 771.79282555 58.28059125 771.79848608 C62.06008356 771.81453869 65.8394497 771.81635443 69.61897373 771.81827641 C72.3476505 771.82575857 75.07631409 771.83621518 77.80498147 771.84651953 C83.74859434 771.86735372 89.69218811 771.88073112 95.63583088 771.8892355 C104.47435335 771.90188261 113.31282023 771.9258158 122.15131208 771.95185483 C139.77506153 772.00327539 157.39882582 772.03879016 175.02262001 772.0705444 C175.93544784 772.07219053 176.84827567 772.07383666 177.78876495 772.07553267 C178.70340877 772.07718056 179.61805258 772.07882844 180.56041288 772.08052626 C190.69262173 772.09897681 200.82482284 772.12082325 210.95702457 772.14278698 C241.55452826 772.20874903 272.15203409 772.27145577 302.74956989 772.32063293 C304.21777771 772.32299832 304.21777771 772.32299832 305.71564629 772.32541148 C309.68238583 772.33179962 313.64912538 772.3381735 317.61586495 772.34454413 C320.6015407 772.34933962 323.58721645 772.35414014 326.57289219 772.35894108 C328.05276362 772.36131538 328.05276362 772.36131538 329.56253145 772.36373764 C360.56538863 772.41361841 391.56815426 772.48271664 422.57093906 772.56597233 C457.39259567 772.6594826 492.21423539 772.735926 527.03597856 772.78890806 C530.74832847 772.79462152 534.46067827 772.80040524 538.17302799 772.80623913 C539.54416657 772.80838003 539.54416657 772.80838003 540.94300492 772.81056417 C555.66000578 772.83395521 570.37691907 772.87369848 585.09386623 772.9191978 C599.88228202 772.9644859 614.67064113 772.99113592 629.45912501 772.99886095 C638.24655838 773.00398537 647.03370339 773.02302978 655.82105309 773.06203392 C661.69101675 773.08670489 667.56081798 773.09314651 673.43082705 773.08478483 C676.77547482 773.08053546 680.11917085 773.08692715 683.46380457 773.10997652 C687.06971827 773.13357983 690.67430987 773.12633455 694.28024006 773.11136627 C695.31433152 773.12553399 696.34842298 773.13970171 697.41385055 773.15429875 C707.0650207 773.05164799 715.02508517 769.31373052 721.83265781 762.50615788 C725.50646199 757.42472764 727.95482021 753.16184334 727.96376032 746.77732646 C727.96943728 745.30643701 727.96943728 745.30643701 727.97522894 743.80583262 C727.97431701 742.72372705 727.97340508 741.64162147 727.97246552 740.52672482 C727.97541694 739.37617717 727.97836836 738.22562953 727.98140922 737.0402168 C727.98861237 733.82732675 727.99130741 730.61446839 727.99213217 727.40157149 C727.99409826 723.91339837 728.00177247 720.4252371 728.00870472 716.93707097 C728.02153737 710.00999142 728.02890802 703.08291562 728.03460351 696.15582695 C728.04165474 687.86208421 728.05441299 679.56835266 728.0671527 671.27461707 C728.09902514 650.2737481 728.1188419 629.27287172 728.13643822 608.27198666 C728.14120492 602.58533236 728.14621377 596.89867829 728.15124345 591.21202421 C728.18228734 555.92533693 728.2089102 520.63864777 728.22566223 485.35195065 C728.22959959 477.17451187 728.2336114 468.99707314 728.23768711 460.81963444 C728.23818878 459.80367205 728.23869045 458.78770967 728.23920732 457.74096055 C728.25562882 424.79414857 728.29408977 391.84741082 728.34497422 358.90063537 C728.39717381 325.04070155 728.42997357 291.18080727 728.43723976 257.32083239 C728.43826839 252.54028293 728.43950472 247.75973353 728.44085979 242.97918415 C728.44111783 242.03830498 728.44137587 241.09742581 728.44164173 240.12803515 C728.4463402 224.97458251 728.47128951 209.82122756 728.50361122 194.66781151 C728.53561634 179.4410151 728.54562997 164.21432891 728.53317928 148.98750286 C728.52643334 139.93768229 728.53642895 130.88823979 728.57030628 121.83847818 C728.59128208 115.79475501 728.59049726 109.75128841 728.57197286 103.70755787 C728.56203586 100.26287746 728.56158654 96.81891823 728.58763569 93.37430595 C728.61066233 89.66243672 728.59686413 85.95246465 728.5737381 82.24063778 C728.58921433 81.1725792 728.60469057 80.10452062 728.62063578 79.00409663 C728.51973818 71.69294853 726.70367444 67.00114827 721.83265781 61.50615788 C713.97508871 54.40734391 707.05651284 53.20842366 696.68710709 53.24888897 C694.98901661 53.24362986 694.98901661 53.24362986 693.25662127 53.2382645 C689.44164234 53.22891853 685.62681498 53.23388213 681.81182957 53.23873234 C679.05769473 53.236102 676.3035678 53.23047691 673.54943734 53.22500169 C667.55020814 53.21469066 661.55101121 53.21185981 655.55177402 53.21391392 C646.63063641 53.21696102 637.70953458 53.20864639 628.78840392 53.19816467 C611.92901455 53.17880981 595.06963734 53.1731959 578.21023818 53.17205055 C565.19224351 53.17113194 552.17425361 53.16701777 539.15626049 53.1606493 C535.41088894 53.15885425 531.66551737 53.15707462 527.92014581 53.15529954 C526.98907233 53.15485745 526.05799885 53.15441535 525.09871102 53.15395986 C498.90481613 53.14164928 472.7109229 53.13375896 446.51702499 53.13464642 C445.5291974 53.13467757 444.54136981 53.13470873 443.52360805 53.13474083 C438.51672975 53.13490705 433.50985146 53.13510513 428.50297316 53.13531025 C427.50856428 53.13535014 426.5141554 53.13539003 425.48961291 53.13543113 C423.47867554 53.135512 421.46773816 53.1355956 419.45680078 53.13568191 C388.16531983 53.1369076 356.87388222 53.12189184 325.58241367 53.09453678 C290.43808648 53.06382631 255.29378777 53.04660365 220.14944631 53.04846323 C216.40313168 53.04861249 212.65681706 53.0487099 208.91050243 53.04877186 C207.52681437 53.04880682 207.52681437 53.04880682 206.115173 53.04884249 C191.26039019 53.04890408 176.40564494 53.03612391 161.5508733 53.01890733 C146.62578877 53.00196682 131.70075931 52.9999646 116.77567049 53.01312597 C107.90588323 53.0205256 99.03626308 53.01682701 90.16649347 52.99724129 C84.24286647 52.98526485 78.31936083 52.98780625 72.39573946 53.00218229 C69.01975554 53.00996531 65.64436043 53.00923947 62.26835682 52.99526758 C58.6305159 52.98120598 54.99354289 52.99168751 51.35573196 53.00837994 C49.78621514 52.9934754 49.78621514 52.9934754 48.18499091 52.97826976 C38.62567875 53.07131213 30.2226276 56.1211563 23.83265781 63.50615788 Z " fill="#5C5C5C" transform="translate(126.16734218597412,94.49384212493896)"/>
<path d="M0 0 C28.7356986 22.96091363 50.30950311 57.20344146 54.46191406 94.24267578 C55.13845498 101.57066955 55.31526264 108.84632186 55.28808594 116.20214844 C55.29195313 117.25660156 55.29582031 118.31105469 55.29980469 119.39746094 C55.25294674 157.25868565 37.59587843 193.07230744 11.16308594 219.57714844 C-8.75737858 239.25130119 -34.56746871 251.95136028 -61.83691406 257.57714844 C-62.53751953 257.72667969 -63.238125 257.87621094 -63.95996094 258.03027344 C-80.94335526 261.57038798 -97.75952279 261.59868015 -114.83691406 258.57714844 C-116.48626953 258.30257812 -116.48626953 258.30257812 -118.16894531 258.02246094 C-154.56820944 251.15787329 -188.48741405 228.74295419 -209.66503906 198.34423828 C-226.95852827 172.26709768 -235.02398467 144.91793048 -235.21191406 113.88964844 C-235.21995056 113.14683624 -235.22798706 112.40402405 -235.23626709 111.63870239 C-235.32167091 101.21871758 -234.25714825 91.72326165 -231.83691406 81.57714844 C-231.546875 80.30556885 -231.25683594 79.03398926 -230.95800781 77.72387695 C-225.02442183 52.33952316 -210.72716409 30.14711921 -192.83691406 11.57714844 C-192.19496094 10.87203125 -191.55300781 10.16691406 -190.89160156 9.44042969 C-174.28875416 -8.27646159 -149.98250644 -20.24047479 -126.83691406 -26.42285156 C-126.20881836 -26.6062207 -125.58072266 -26.78958984 -124.93359375 -26.97851562 C-82.722846 -39.09437377 -34.13972047 -26.44421729 0 0 Z " fill="#6D6D6D" transform="translate(434.8369140625,239.4228515625)"/>
</svg>
